<?xml version="1.0" encoding="UTF-8"?>
<!DOCTYPE svg PUBLIC "-//W3C//DTD SVG 1.1//EN" "http://www.w3.org/Graphics/SVG/1.1/DTD/svg11.dtd">
<svg xmlns="http://www.w3.org/2000/svg" version="1.1" width="1024px" height="1024px" style="shape-rendering:geometricPrecision; text-rendering:geometricPrecision; image-rendering:optimizeQuality; fill-rule:evenodd; clip-rule:evenodd" xmlns:xlink="http://www.w3.org/1999/xlink">
<g><path style="opacity:0.999" fill="#fdfdfd" d="M -0.5,-0.5 C 340.833,-0.5 682.167,-0.5 1023.5,-0.5C 1023.5,339.167 1023.5,678.833 1023.5,1018.5C 1008.31,1011.24 993.312,1003.4 978.5,995C 883.833,950 789.167,905 694.5,860C 685.335,854.919 676.335,849.585 667.5,844C 648.379,827.927 637.546,807.427 635,782.5C 634.333,747.833 634.333,713.167 635,678.5C 678.204,639.428 702.87,590.762 709,532.5C 717.706,525.89 726.54,519.39 735.5,513C 766.009,483.113 773.175,448.279 757,408.5C 762.987,339.76 745.654,277.76 705,222.5C 649.328,156.598 578.161,126.098 491.5,131C 407.656,139.928 343.822,180.095 300,251.5C 283.689,280.408 274.022,311.408 271,344.5C 270.493,363.514 270.493,382.514 271,401.5C 259.612,422.233 256.278,444.233 261,467.5C 268.35,499.014 287.183,520.347 317.5,531.5C 321.788,589.576 345.288,638.243 388,677.5C 388.667,712.833 388.667,748.167 388,783.5C 383.043,815.606 366.209,839.106 337.5,854C 308.833,868.333 280.167,882.667 251.5,897C 166.987,936.759 82.9871,977.259 -0.5,1018.5C -0.5,678.833 -0.5,339.167 -0.5,-0.5 Z"/></g>
<g><path style="opacity:1" fill="#050606" d="M 1023.5,1018.5 C 1023.5,1020.17 1023.5,1021.83 1023.5,1023.5C 1019.83,1023.5 1016.17,1023.5 1012.5,1023.5C 929.428,984.135 846.095,944.968 762.5,906C 733.167,891.333 703.833,876.667 674.5,862C 644.739,844.657 627.906,818.824 624,784.5C 623.833,752.828 623.333,721.161 622.5,689.5C 602.688,700.572 582.022,709.739 560.5,717C 547.659,720.001 534.659,721.834 521.5,722.5C 519.167,722.5 516.833,722.5 514.5,722.5C 514.5,765.5 514.5,808.5 514.5,851.5C 513.501,906.664 513.168,961.997 513.5,1017.5C 511.167,1017.5 508.833,1017.5 506.5,1017.5C 506.829,1003.66 506.496,989.99 505.5,976.5C 505.677,892.164 505.344,807.83 504.5,723.5C 467.146,720.272 433.146,707.939 402.5,686.5C 401.283,720.164 400.117,753.831 399,787.5C 395.439,812.795 383.939,833.628 364.5,850C 348.991,860.926 332.658,870.593 315.5,879C 213.822,927.011 112.488,975.178 11.5,1023.5C 7.5,1023.5 3.5,1023.5 -0.5,1023.5C -0.5,1021.83 -0.5,1020.17 -0.5,1018.5C 82.9871,977.259 166.987,936.759 251.5,897C 280.167,882.667 308.833,868.333 337.5,854C 366.209,839.106 383.043,815.606 388,783.5C 388.667,748.167 388.667,712.833 388,677.5C 345.288,638.243 321.788,589.576 317.5,531.5C 287.183,520.347 268.35,499.014 261,467.5C 256.278,444.233 259.612,422.233 271,401.5C 270.493,382.514 270.493,363.514 271,344.5C 274.022,311.408 283.689,280.408 300,251.5C 343.822,180.095 407.656,139.928 491.5,131C 578.161,126.098 649.328,156.598 705,222.5C 745.654,277.76 762.987,339.76 757,408.5C 773.175,448.279 766.009,483.113 735.5,513C 726.54,519.39 717.706,525.89 709,532.5C 702.87,590.762 678.204,639.428 635,678.5C 634.333,713.167 634.333,747.833 635,782.5C 637.546,807.427 648.379,827.927 667.5,844C 676.335,849.585 685.335,854.919 694.5,860C 789.167,905 883.833,950 978.5,995C 993.312,1003.4 1008.31,1011.24 1023.5,1018.5 Z"/></g>
<g><path style="opacity:1" fill="#fdfdfd" d="M 488.5,141.5 C 493.833,141.5 499.167,141.5 504.5,141.5C 504.176,148.354 504.509,155.021 505.5,161.5C 505.5,236.167 505.5,310.833 505.5,385.5C 478.167,385.5 450.833,385.5 423.5,385.5C 376.833,385.5 330.167,385.5 283.5,385.5C 283.5,375.5 283.5,365.5 283.5,355.5C 286.589,289.824 313.255,235.991 363.5,194C 399.805,164.163 441.471,146.663 488.5,141.5 Z"/></g>
<g><path style="opacity:1" fill="#939393" d="M 488.5,141.5 C 493.975,140.511 499.642,140.178 505.5,140.5C 505.5,147.5 505.5,154.5 505.5,161.5C 504.509,155.021 504.176,148.354 504.5,141.5C 499.167,141.5 493.833,141.5 488.5,141.5 Z"/></g>
<g><path style="opacity:1" fill="#8e8f8f" d="M 283.5,355.5 C 283.5,365.5 283.5,375.5 283.5,385.5C 330.167,385.5 376.833,385.5 423.5,385.5C 376.67,386.499 329.67,386.832 282.5,386.5C 282.172,375.986 282.506,365.653 283.5,355.5 Z"/></g>
<g><path style="opacity:1" fill="#707070" d="M 401.5,396.5 C 364.004,397.498 326.337,397.832 288.5,397.5C 288.5,398.5 288.5,399.5 288.5,400.5C 287.566,399.432 287.232,398.099 287.5,396.5C 325.5,396.5 363.5,396.5 401.5,396.5 Z"/></g>
<g><path style="opacity:1" fill="#fdfdfd" d="M 401.5,396.5 C 436.167,396.5 470.833,396.5 505.5,396.5C 505.5,451.833 505.5,507.167 505.5,562.5C 504.507,571.318 504.173,580.318 504.5,589.5C 496.648,589.175 488.982,589.508 481.5,590.5C 476.786,590.173 472.12,590.507 467.5,591.5C 465.96,594.291 466.294,596.791 468.5,599C 480.824,599.798 493.157,600.298 505.5,600.5C 505.5,608.5 505.5,616.5 505.5,624.5C 493.507,625.077 481.507,625.577 469.5,626C 467.638,629.149 466.971,632.649 467.5,636.5C 470.5,636.5 473.5,636.5 476.5,636.5C 485.652,637.494 494.985,637.827 504.5,637.5C 505.157,662.523 504.49,687.189 502.5,711.5C 433.015,703.462 381.849,668.795 349,607.5C 343.15,595.284 338.483,582.617 335,569.5C 331.862,539.59 327.195,509.923 321,480.5C 312.625,452.761 301.791,426.094 288.5,400.5C 288.5,399.5 288.5,398.5 288.5,397.5C 326.337,397.832 364.004,397.498 401.5,396.5 Z"/></g>
<g><path style="opacity:1" fill="#7e7f7f" d="M 522.5,398.5 C 520.167,398.5 517.833,398.5 515.5,398.5C 515.5,461.833 515.5,525.167 515.5,588.5C 523.684,588.174 531.684,588.508 539.5,589.5C 531.167,589.5 522.833,589.5 514.5,589.5C 514.5,525.5 514.5,461.5 514.5,397.5C 517.385,397.194 520.052,397.527 522.5,398.5 Z"/></g>
<g><path style="opacity:1" fill="#fdfdfd" d="M 531.5,711.5 C 526.167,711.5 520.833,711.5 515.5,711.5C 515.5,686.833 515.5,662.167 515.5,637.5C 523.684,637.826 531.684,637.492 539.5,636.5C 543.182,636.665 546.848,636.499 550.5,636C 552.393,633.083 552.893,629.916 552,626.5C 547.482,624.593 542.648,623.926 537.5,624.5C 530.352,623.508 523.019,623.175 515.5,623.5C 515.5,616.167 515.5,608.833 515.5,601.5C 523.684,601.826 531.684,601.492 539.5,600.5C 544.544,600.827 549.544,600.494 554.5,599.5C 555.833,596.5 555.833,593.5 554.5,590.5C 549.544,589.506 544.544,589.173 539.5,589.5C 531.684,588.508 523.684,588.174 515.5,588.5C 515.5,525.167 515.5,461.833 515.5,398.5C 517.833,398.5 520.167,398.5 522.5,398.5C 532.085,399.417 541.085,402.25 549.5,407C 562.97,417.905 577.303,427.572 592.5,436C 613.554,443.208 633.887,441.541 653.5,431C 663.742,424.095 673.409,416.428 682.5,408C 700.285,395.246 718.618,394.246 737.5,405C 744.391,410.945 748.557,418.445 750,427.5C 755.059,451.146 751.059,473.146 738,493.5C 728.697,504.737 717.197,512.904 703.5,518C 701.623,520.251 700.123,522.751 699,525.5C 694.714,558.979 684.714,590.645 669,620.5C 637.039,671.422 591.206,701.756 531.5,711.5 Z"/></g>
<g><path style="opacity:1" fill="#838484" d="M 505.5,562.5 C 505.5,571.833 505.5,581.167 505.5,590.5C 497.5,590.5 489.5,590.5 481.5,590.5C 488.982,589.508 496.648,589.175 504.5,589.5C 504.173,580.318 504.507,571.318 505.5,562.5 Z"/></g>
<g><path style="opacity:1" fill="#7f8080" d="M 539.5,600.5 C 531.684,601.492 523.684,601.826 515.5,601.5C 515.5,608.833 515.5,616.167 515.5,623.5C 523.019,623.175 530.352,623.508 537.5,624.5C 529.833,624.5 522.167,624.5 514.5,624.5C 514.5,616.5 514.5,608.5 514.5,600.5C 522.833,600.5 531.167,600.5 539.5,600.5 Z"/></g>
<g><path style="opacity:1" fill="#7d7e7e" d="M 476.5,636.5 C 486.167,636.5 495.833,636.5 505.5,636.5C 505.5,661.833 505.5,687.167 505.5,712.5C 504.209,712.737 503.209,712.404 502.5,711.5C 504.49,687.189 505.157,662.523 504.5,637.5C 494.985,637.827 485.652,637.494 476.5,636.5 Z"/></g>
<g><path style="opacity:1" fill="#7e7f7f" d="M 539.5,636.5 C 531.684,637.492 523.684,637.826 515.5,637.5C 515.5,662.167 515.5,686.833 515.5,711.5C 520.833,711.5 526.167,711.5 531.5,711.5C 526.025,712.489 520.358,712.822 514.5,712.5C 514.5,687.167 514.5,661.833 514.5,636.5C 522.833,636.5 531.167,636.5 539.5,636.5 Z"/></g>
<g><path style="opacity:0.997" fill="#fdfdfd" d="M 505.5,976.5 C 505.5,990.5 505.5,1004.5 505.5,1018.5C 506.5,1018.5 507.5,1018.5 508.5,1018.5C 510.607,1019.47 512.941,1019.8 515.5,1019.5C 515.5,920.833 515.5,822.167 515.5,723.5C 517.735,723.795 519.735,723.461 521.5,722.5C 534.659,721.834 547.659,720.001 560.5,717C 582.022,709.739 602.688,700.572 622.5,689.5C 623.333,721.161 623.833,752.828 624,784.5C 627.906,818.824 644.739,844.657 674.5,862C 703.833,876.667 733.167,891.333 762.5,906C 846.095,944.968 929.428,984.135 1012.5,1023.5C 678.833,1023.5 345.167,1023.5 11.5,1023.5C 112.488,975.178 213.822,927.011 315.5,879C 332.658,870.593 348.991,860.926 364.5,850C 383.939,833.628 395.439,812.795 399,787.5C 400.117,753.831 401.283,720.164 402.5,686.5C 433.146,707.939 467.146,720.272 504.5,723.5C 505.344,807.83 505.677,892.164 505.5,976.5 Z"/></g>
<g><path style="opacity:1" fill="#999693" d="M 521.5,722.5 C 519.735,723.461 517.735,723.795 515.5,723.5C 515.5,822.167 515.5,920.833 515.5,1019.5C 512.941,1019.8 510.607,1019.47 508.5,1018.5C 510.5,1018.5 512.5,1018.5 514.5,1018.5C 514.5,962.833 514.5,907.167 514.5,851.5C 514.5,808.5 514.5,765.5 514.5,722.5C 516.833,722.5 519.167,722.5 521.5,722.5 Z"/></g>
<g><path style="opacity:1" fill="#625f5b" d="M 514.5,851.5 C 514.5,907.167 514.5,962.833 514.5,1018.5C 512.5,1018.5 510.5,1018.5 508.5,1018.5C 507.5,1018.5 506.5,1018.5 505.5,1018.5C 505.5,1004.5 505.5,990.5 505.5,976.5C 506.496,989.99 506.829,1003.66 506.5,1017.5C 508.833,1017.5 511.167,1017.5 513.5,1017.5C 513.168,961.997 513.501,906.664 514.5,851.5 Z"/></g>
</svg>
